<svg xmlns="http://www.w3.org/2000/svg" xmlns:xlink="http://www.w3.org/1999/xlink" width="500" zoomAndPan="magnify" viewBox="0 0 375 374.999991" height="500" preserveAspectRatio="xMidYMid meet" version="1.0"><defs><g/><clipPath id="27bad1aef8"><path d="M 159.445312 357.800781 L 217.78125 357.800781 L 217.78125 374.671875 L 159.445312 374.671875 Z M 159.445312 357.800781 " clip-rule="nonzero"/></clipPath><clipPath id="f3e0fbfa2a"><path d="M 20.332031 165 L 51 165 L 51 173 L 20.332031 173 Z M 20.332031 165 " clip-rule="nonzero"/></clipPath></defs><path fill="#004aad" d="M 160.386719 248.050781 C 160.070312 248.050781 159.75 248.042969 159.4375 248.027344 C 159.214844 248.015625 158.992188 248 158.773438 247.980469 C 158.6875 247.972656 158.601562 247.96875 158.519531 247.960938 C 149.363281 247.0625 141.867188 239.636719 141.082031 230.324219 C 141.078125 230.320312 141.078125 230.3125 141.078125 230.304688 C 141.035156 229.765625 141.003906 229.21875 141.003906 228.667969 C 141.003906 217.980469 149.703125 209.285156 160.386719 209.285156 C 162.300781 209.285156 163.847656 207.738281 163.847656 205.828125 C 163.847656 203.917969 162.300781 202.371094 160.386719 202.371094 C 146.316406 202.371094 134.789062 213.480469 134.125 227.394531 C 123.539062 227.273438 114.964844 218.628906 114.964844 208.015625 C 114.964844 204.039062 116.160156 200.21875 118.429688 196.960938 C 118.996094 196.148438 119.1875 195.132812 118.953125 194.171875 C 118.71875 193.210938 118.085938 192.390625 117.210938 191.929688 C 110.839844 188.554688 106.882812 181.988281 106.882812 174.792969 C 106.882812 170.371094 108.363281 166.171875 111.074219 162.757812 C 111.132812 162.683594 111.1875 162.609375 111.246094 162.535156 C 111.28125 162.492188 111.320312 162.453125 111.355469 162.410156 C 111.730469 161.960938 112.121094 161.523438 112.539062 161.105469 C 112.546875 161.101562 112.550781 161.09375 112.554688 161.089844 C 116.21875 157.421875 121.085938 155.40625 126.269531 155.40625 C 129.984375 155.40625 133.601562 156.464844 136.722656 158.46875 C 142.3125 162.050781 145.648438 168.152344 145.648438 174.792969 C 145.648438 176.703125 147.195312 178.25 149.105469 178.25 C 151.011719 178.25 152.5625 176.703125 152.5625 174.792969 C 152.5625 165.789062 148.035156 157.507812 140.453125 152.648438 C 136.214844 149.929688 131.308594 148.492188 126.269531 148.492188 C 120.570312 148.492188 115.152344 150.292969 110.65625 153.621094 C 109.441406 151.476562 108.792969 149.054688 108.792969 146.5625 C 108.792969 139.847656 113.550781 133.941406 120.101562 132.511719 C 121.019531 132.3125 121.808594 131.75 122.304688 130.960938 C 122.796875 130.164062 122.949219 129.203125 122.722656 128.296875 C 122.339844 126.765625 122.148438 125.1875 122.148438 123.605469 C 122.148438 112.917969 130.84375 104.222656 141.53125 104.222656 C 142.414062 104.222656 143.292969 104.28125 144.164062 104.402344 C 145.105469 115.292969 154.257812 123.863281 165.382812 123.863281 C 167.296875 123.863281 168.84375 122.316406 168.84375 120.40625 C 168.84375 118.496094 167.296875 116.949219 165.382812 116.949219 C 157.453125 116.949219 150.996094 110.496094 150.996094 102.558594 C 150.996094 102.453125 150.988281 102.339844 150.980469 102.234375 C 151.011719 102.082031 151.03125 101.929688 151.039062 101.769531 C 151.453125 94.144531 157.757812 88.171875 165.382812 88.171875 C 173.320312 88.171875 179.777344 94.628906 179.777344 102.558594 L 179.777344 228.667969 C 179.777344 239.359375 171.078125 248.050781 160.386719 248.050781 Z M 254.925781 130.960938 C 255.414062 131.75 256.210938 132.3125 257.125 132.511719 C 263.675781 133.941406 268.4375 139.847656 268.4375 146.5625 C 268.4375 150.179688 267.070312 153.640625 264.597656 156.316406 C 263.339844 157.675781 263.375 159.792969 264.6875 161.105469 C 268.332031 164.761719 270.34375 169.625 270.34375 174.792969 C 270.34375 181.988281 266.386719 188.554688 260.015625 191.929688 C 259.144531 192.394531 258.507812 193.210938 258.273438 194.171875 C 258.042969 195.132812 258.230469 196.148438 258.796875 196.960938 C 261.066406 200.21875 262.261719 204.039062 262.261719 208.015625 C 262.261719 218.703125 253.570312 227.398438 242.878906 227.398438 C 241.957031 227.398438 241.019531 227.328125 240.085938 227.195312 C 239.140625 227.0625 238.183594 227.320312 237.4375 227.910156 C 236.695312 228.5 236.226562 229.378906 236.144531 230.324219 C 235.304688 240.265625 226.820312 248.050781 216.839844 248.050781 C 206.148438 248.050781 197.453125 239.359375 197.453125 228.667969 L 197.453125 102.558594 C 197.453125 94.628906 203.90625 88.171875 211.84375 88.171875 C 219.472656 88.171875 225.773438 94.144531 226.1875 101.769531 C 226.242188 102.8125 226.769531 103.773438 227.617188 104.386719 C 228.464844 105 229.546875 105.191406 230.550781 104.917969 C 232.230469 104.457031 233.960938 104.222656 235.695312 104.222656 C 246.382812 104.222656 255.078125 112.917969 255.078125 123.605469 C 255.078125 125.1875 254.886719 126.765625 254.503906 128.296875 C 254.277344 129.203125 254.429688 130.164062 254.925781 130.960938 Z M 242.40625 265.921875 C 242.1875 266.050781 241.988281 266.191406 241.804688 266.351562 C 227.644531 275.40625 224.402344 289 221.535156 301.007812 C 219.550781 309.332031 217.667969 317.21875 212.609375 323.570312 L 202.015625 323.570312 L 202.015625 308.746094 C 202.015625 304.742188 200.246094 301.144531 197.453125 298.6875 L 197.453125 246.417969 C 202.261719 251.667969 209.171875 254.96875 216.839844 254.96875 C 229.222656 254.96875 239.90625 246.136719 242.519531 234.308594 C 242.640625 234.3125 242.757812 234.3125 242.878906 234.3125 C 257.382812 234.3125 269.179688 222.515625 269.179688 208.015625 C 269.179688 203.84375 268.203125 199.792969 266.339844 196.125 C 273.152344 191.21875 277.257812 183.332031 277.257812 174.792969 C 277.257812 168.824219 275.285156 163.160156 271.644531 158.542969 C 274.046875 155.023438 275.351562 150.863281 275.351562 146.5625 C 275.351562 137.753906 269.820312 129.882812 261.808594 126.730469 C 261.929688 125.691406 261.996094 124.648438 261.996094 123.605469 C 261.996094 109.105469 250.195312 97.304688 235.695312 97.304688 C 234.632812 97.304688 233.574219 97.375 232.519531 97.5 C 230.242188 88.132812 221.808594 81.253906 211.84375 81.253906 C 200.09375 81.253906 190.539062 90.816406 190.539062 102.558594 L 190.539062 295.488281 C 189.910156 295.394531 189.269531 295.347656 188.613281 295.347656 C 187.960938 295.347656 187.316406 295.394531 186.6875 295.488281 L 186.6875 102.558594 C 186.6875 90.816406 177.132812 81.253906 165.382812 81.253906 C 155.417969 81.253906 146.984375 88.132812 144.707031 97.5 C 143.652344 97.375 142.59375 97.304688 141.53125 97.304688 C 127.03125 97.304688 115.234375 109.105469 115.234375 123.605469 C 115.234375 124.648438 115.292969 125.691406 115.421875 126.730469 C 107.40625 129.882812 101.875 137.753906 101.875 146.5625 C 101.875 150.867188 103.175781 155.023438 105.582031 158.542969 C 105.464844 158.691406 105.355469 158.847656 105.242188 158.996094 C 105.171875 159.089844 105.097656 159.183594 105.03125 159.277344 C 104.800781 159.589844 104.574219 159.910156 104.359375 160.234375 C 104.351562 160.238281 104.351562 160.246094 104.34375 160.253906 C 103.882812 160.945312 103.457031 161.664062 103.066406 162.394531 C 103.03125 162.453125 103 162.519531 102.964844 162.582031 C 102.8125 162.878906 102.660156 163.179688 102.515625 163.484375 C 102.476562 163.5625 102.441406 163.644531 102.402344 163.726562 C 102.265625 164.015625 102.132812 164.316406 102.007812 164.613281 C 101.976562 164.695312 101.941406 164.773438 101.90625 164.851562 C 101.777344 165.175781 101.652344 165.5 101.535156 165.828125 C 101.511719 165.882812 101.492188 165.933594 101.476562 165.984375 C 101.199219 166.765625 100.957031 167.558594 100.757812 168.363281 C 100.746094 168.414062 100.734375 168.464844 100.722656 168.511719 C 100.640625 168.847656 100.5625 169.191406 100.492188 169.53125 C 100.472656 169.640625 100.453125 169.753906 100.433594 169.863281 C 100.378906 170.148438 100.332031 170.433594 100.285156 170.71875 C 100.261719 170.851562 100.246094 170.980469 100.226562 171.113281 C 100.191406 171.386719 100.15625 171.660156 100.125 171.933594 C 100.109375 172.070312 100.097656 172.207031 100.085938 172.34375 C 100.058594 172.628906 100.039062 172.917969 100.019531 173.207031 C 100.011719 173.324219 100.003906 173.449219 99.996094 173.566406 C 99.980469 173.972656 99.96875 174.382812 99.96875 174.792969 C 99.96875 174.792969 99.96875 174.792969 99.96875 174.796875 C 99.972656 183.335938 104.078125 191.222656 110.890625 196.125 C 109.023438 199.792969 108.050781 203.84375 108.050781 208.015625 C 108.050781 222.636719 120.101562 234.507812 134.707031 234.308594 C 136.976562 244.648438 145.34375 252.722656 155.835938 254.566406 C 156.167969 254.625 156.503906 254.675781 156.835938 254.71875 C 156.945312 254.738281 157.054688 254.75 157.164062 254.761719 C 157.425781 254.796875 157.6875 254.824219 157.953125 254.851562 C 158.160156 254.871094 158.371094 254.882812 158.578125 254.898438 C 158.765625 254.914062 158.953125 254.925781 159.144531 254.9375 C 159.558594 254.957031 159.972656 254.96875 160.386719 254.96875 C 168.054688 254.96875 174.964844 251.667969 179.777344 246.417969 L 179.777344 298.6875 C 176.980469 301.144531 175.210938 304.742188 175.210938 308.746094 L 175.210938 323.570312 L 164.703125 323.570312 C 159.644531 317.21875 157.761719 309.332031 155.777344 301.007812 C 152.878906 288.84375 149.585938 275.054688 134.949219 266 C 134.90625 265.976562 134.867188 265.949219 134.820312 265.921875 C 100.0625 246.433594 78.472656 209.597656 78.472656 169.800781 C 78.472656 109.070312 127.882812 59.660156 188.613281 59.660156 C 249.347656 59.660156 298.757812 109.070312 298.757812 169.800781 C 298.757812 209.597656 277.164062 246.433594 242.40625 265.921875 Z M 182.128906 308.746094 C 182.128906 305.171875 185.039062 302.261719 188.613281 302.261719 C 192.191406 302.261719 195.097656 305.171875 195.097656 308.746094 L 195.097656 323.570312 L 182.128906 323.570312 Z M 210.707031 334.511719 L 166.519531 334.511719 L 166.519531 330.484375 L 210.707031 330.484375 Z M 188.613281 52.746094 C 124.066406 52.746094 71.558594 105.257812 71.558594 169.800781 C 71.558594 212.070312 94.476562 251.191406 131.371094 271.917969 C 143.53125 279.472656 146.214844 290.714844 149.054688 302.617188 C 151.164062 311.472656 153.355469 320.617188 159.605469 328.246094 L 159.605469 335.332031 C 159.605469 338.691406 162.339844 341.425781 165.699219 341.425781 L 211.527344 341.425781 C 214.886719 341.425781 217.621094 338.691406 217.621094 335.332031 L 217.621094 328.347656 C 223.933594 320.699219 226.136719 311.515625 228.261719 302.613281 C 231.105469 290.691406 233.792969 279.433594 246.003906 271.878906 C 246.121094 271.808594 246.230469 271.730469 246.335938 271.648438 C 282.949219 250.851562 305.667969 211.886719 305.667969 169.800781 C 305.667969 105.257812 253.160156 52.746094 188.613281 52.746094 " fill-opacity="1" fill-rule="nonzero"/><g clip-path="url(#27bad1aef8)"><path fill="#004aad" d="M 198.761719 367.226562 C 198.542969 367.5625 198.171875 367.761719 197.769531 367.761719 L 179.457031 367.761719 C 179.058594 367.761719 178.6875 367.5625 178.464844 367.226562 L 176.835938 364.785156 L 200.390625 364.785156 Z M 214.164062 357.875 L 163.0625 357.875 C 161.152344 357.875 159.605469 359.417969 159.605469 361.328125 C 159.605469 363.238281 161.152344 364.785156 163.0625 364.785156 L 168.527344 364.785156 L 172.710938 371.066406 C 174.21875 373.324219 176.742188 374.671875 179.457031 374.671875 L 197.769531 374.671875 C 200.488281 374.671875 203.007812 373.324219 204.515625 371.0625 L 208.699219 364.785156 L 214.164062 364.785156 C 216.074219 364.785156 217.621094 363.238281 217.621094 361.328125 C 217.621094 359.417969 216.074219 357.875 214.164062 357.875 " fill-opacity="1" fill-rule="nonzero"/></g><path fill="#004aad" d="M 214.164062 346.191406 L 163.0625 346.191406 C 161.152344 346.191406 159.605469 347.738281 159.605469 349.648438 C 159.605469 351.558594 161.152344 353.105469 163.0625 353.105469 L 214.164062 353.105469 C 216.074219 353.105469 217.621094 351.558594 217.621094 349.648438 C 217.621094 347.738281 216.074219 346.191406 214.164062 346.191406 " fill-opacity="1" fill-rule="nonzero"/><path fill="#004aad" d="M 213.625 217.546875 C 211.695312 217.546875 210.121094 215.972656 210.121094 214.042969 C 210.121094 212.109375 211.695312 210.535156 213.625 210.535156 C 215.558594 210.535156 217.128906 212.109375 217.128906 214.042969 C 217.128906 215.972656 215.558594 217.546875 213.625 217.546875 Z M 217.085938 204.222656 L 217.085938 187.167969 C 217.085938 185.257812 215.535156 183.710938 213.625 183.710938 C 211.71875 183.710938 210.167969 185.257812 210.167969 187.167969 L 210.167969 204.222656 C 206.121094 205.65625 203.207031 209.507812 203.207031 214.042969 C 203.207031 219.785156 207.882812 224.460938 213.625 224.460938 C 219.371094 224.460938 224.046875 219.785156 224.046875 214.042969 C 224.046875 209.507812 221.128906 205.65625 217.085938 204.222656 " fill-opacity="1" fill-rule="nonzero"/><path fill="#004aad" d="M 241.144531 166.878906 C 239.210938 166.878906 237.640625 165.300781 237.640625 163.371094 C 237.640625 161.4375 239.210938 159.867188 241.144531 159.867188 C 243.078125 159.867188 244.648438 161.4375 244.648438 163.371094 C 244.648438 165.300781 243.078125 166.878906 241.144531 166.878906 Z M 213.625 114.941406 C 215.558594 114.941406 217.128906 116.511719 217.128906 118.445312 C 217.128906 119.164062 216.910156 119.835938 216.539062 120.394531 C 216.519531 120.414062 216.507812 120.4375 216.492188 120.457031 C 215.855469 121.355469 214.8125 121.949219 213.625 121.949219 C 211.695312 121.949219 210.121094 120.378906 210.121094 118.445312 C 210.121094 116.511719 211.695312 114.941406 213.625 114.941406 Z M 241.144531 152.949219 C 240.742188 152.949219 240.347656 152.980469 239.960938 153.023438 L 223.199219 122.550781 C 223.742188 121.289062 224.046875 119.90625 224.046875 118.445312 C 224.046875 112.699219 219.371094 108.027344 213.625 108.027344 C 207.882812 108.027344 203.207031 112.699219 203.207031 118.445312 C 203.207031 122.976562 206.121094 126.832031 210.167969 128.261719 L 210.167969 168.113281 C 210.167969 170.019531 211.71875 171.570312 213.625 171.570312 C 215.535156 171.570312 217.085938 170.019531 217.085938 168.113281 L 217.085938 128.261719 C 217.464844 128.128906 217.835938 127.972656 218.195312 127.796875 L 233.738281 156.054688 C 231.875 157.9375 230.726562 160.523438 230.726562 163.371094 C 230.726562 169.117188 235.398438 173.789062 241.144531 173.789062 C 246.894531 173.789062 251.5625 169.117188 251.5625 163.371094 C 251.5625 157.625 246.894531 152.949219 241.144531 152.949219 " fill-opacity="1" fill-rule="nonzero"/><path fill="#004aad" d="M 188.613281 30.210938 C 190.523438 30.210938 192.070312 28.660156 192.070312 26.753906 L 192.070312 3.753906 C 192.070312 1.847656 190.523438 0.300781 188.613281 0.300781 C 186.703125 0.300781 185.15625 1.847656 185.15625 3.753906 L 185.15625 26.753906 C 185.15625 28.660156 186.703125 30.210938 188.613281 30.210938 " fill-opacity="1" fill-rule="nonzero"/><path fill="#004aad" d="M 85.882812 70.738281 C 86.554688 71.414062 87.441406 71.75 88.324219 71.75 C 89.210938 71.75 90.097656 71.414062 90.769531 70.738281 C 92.121094 69.386719 92.121094 67.199219 90.769531 65.851562 L 74.507812 49.589844 C 73.160156 48.234375 70.972656 48.234375 69.621094 49.589844 C 68.269531 50.9375 68.269531 53.125 69.621094 54.476562 L 85.882812 70.738281 " fill-opacity="1" fill-rule="nonzero"/><g clip-path="url(#f3e0fbfa2a)"><path fill="#004aad" d="M 46.785156 165.125 L 23.789062 165.125 C 21.878906 165.125 20.332031 166.667969 20.332031 168.582031 C 20.332031 170.492188 21.878906 172.035156 23.789062 172.035156 L 46.785156 172.035156 C 48.695312 172.035156 50.242188 170.492188 50.242188 168.582031 C 50.242188 166.667969 48.695312 165.125 46.785156 165.125 " fill-opacity="1" fill-rule="nonzero"/></g><path fill="#004aad" d="M 85.882812 266.421875 L 69.621094 282.683594 C 68.269531 284.035156 68.269531 286.222656 69.621094 287.574219 C 70.296875 288.246094 71.183594 288.585938 72.0625 288.585938 C 72.949219 288.585938 73.835938 288.246094 74.507812 287.574219 L 90.769531 271.3125 C 92.121094 269.960938 92.121094 267.773438 90.769531 266.421875 C 89.421875 265.074219 87.230469 265.074219 85.882812 266.421875 " fill-opacity="1" fill-rule="nonzero"/><path fill="#004aad" d="M 291.34375 266.421875 C 289.996094 265.074219 287.808594 265.074219 286.457031 266.421875 C 285.105469 267.773438 285.105469 269.960938 286.457031 271.3125 L 302.71875 287.574219 C 303.390625 288.246094 304.277344 288.585938 305.164062 288.585938 C 306.046875 288.585938 306.929688 288.246094 307.605469 287.574219 C 308.957031 286.222656 308.957031 284.035156 307.605469 282.683594 L 291.34375 266.421875 " fill-opacity="1" fill-rule="nonzero"/><path fill="#004aad" d="M 353.4375 165.125 L 330.441406 165.125 C 328.53125 165.125 326.984375 166.667969 326.984375 168.582031 C 326.984375 170.492188 328.53125 172.035156 330.441406 172.035156 L 353.4375 172.035156 C 355.347656 172.035156 356.894531 170.492188 356.894531 168.582031 C 356.894531 166.667969 355.347656 165.125 353.4375 165.125 " fill-opacity="1" fill-rule="nonzero"/><path fill="#004aad" d="M 302.71875 49.589844 L 286.457031 65.851562 C 285.105469 67.199219 285.105469 69.386719 286.457031 70.738281 C 287.132812 71.414062 288.015625 71.75 288.902344 71.75 C 289.785156 71.75 290.667969 71.414062 291.34375 70.738281 L 307.605469 54.476562 C 308.957031 53.125 308.957031 50.9375 307.605469 49.589844 C 306.253906 48.234375 304.066406 48.234375 302.71875 49.589844 " fill-opacity="1" fill-rule="nonzero"/><g fill="#ffffff" fill-opacity="1"><g transform="translate(251.06196, 333.849969)"><g><path d="M 3.078125 -5.390625 L 3.078125 -1.109375 L 8.890625 -1.109375 L 8.890625 0 L 1.734375 0 L 1.734375 -11.421875 L 8.765625 -11.421875 L 8.765625 -10.3125 L 3.078125 -10.3125 L 3.078125 -6.5 L 8.09375 -6.5 L 8.09375 -5.390625 Z M 3.078125 -5.390625 "/></g></g></g><g fill="#ffffff" fill-opacity="1"><g transform="translate(260.708047, 333.849969)"><g><path d="M 4.46875 0.171875 C 3.78125 0.171875 3.171875 0.00390625 2.640625 -0.328125 C 2.109375 -0.660156 1.691406 -1.160156 1.390625 -1.828125 C 1.097656 -2.492188 0.953125 -3.320312 0.953125 -4.3125 C 0.953125 -5.289062 1.109375 -6.113281 1.421875 -6.78125 C 1.734375 -7.457031 2.160156 -7.957031 2.703125 -8.28125 C 3.253906 -8.613281 3.894531 -8.78125 4.625 -8.78125 C 5.195312 -8.78125 5.710938 -8.671875 6.171875 -8.453125 C 6.628906 -8.242188 7.019531 -7.890625 7.34375 -7.390625 L 7.515625 -7.421875 L 7.515625 -12.078125 L 8.78125 -12.078125 L 8.78125 0 L 7.515625 0 L 7.515625 -1.265625 L 7.34375 -1.296875 C 7.0625 -0.867188 6.679688 -0.515625 6.203125 -0.234375 C 5.722656 0.0351562 5.144531 0.171875 4.46875 0.171875 Z M 4.875 -0.984375 C 5.675781 -0.984375 6.316406 -1.253906 6.796875 -1.796875 C 7.273438 -2.347656 7.515625 -3.1875 7.515625 -4.3125 C 7.515625 -5.4375 7.273438 -6.269531 6.796875 -6.8125 C 6.316406 -7.363281 5.675781 -7.640625 4.875 -7.640625 C 4.039062 -7.640625 3.398438 -7.367188 2.953125 -6.828125 C 2.503906 -6.296875 2.28125 -5.457031 2.28125 -4.3125 C 2.28125 -2.09375 3.144531 -0.984375 4.875 -0.984375 Z M 4.875 -0.984375 "/></g></g></g><g fill="#ffffff" fill-opacity="1"><g transform="translate(270.994603, 333.849969)"><g><path d="M 9.1875 2.671875 C 8.238281 2.671875 7.445312 2.453125 6.8125 2.015625 C 6.1875 1.578125 5.742188 0.945312 5.484375 0.125 C 4.628906 0.0078125 3.875 -0.273438 3.21875 -0.734375 C 2.570312 -1.191406 2.0625 -1.835938 1.6875 -2.671875 C 1.320312 -3.515625 1.140625 -4.53125 1.140625 -5.71875 C 1.140625 -7.019531 1.359375 -8.109375 1.796875 -8.984375 C 2.242188 -9.867188 2.851562 -10.523438 3.625 -10.953125 C 4.394531 -11.378906 5.273438 -11.59375 6.265625 -11.59375 C 7.253906 -11.59375 8.132812 -11.378906 8.90625 -10.953125 C 9.675781 -10.523438 10.28125 -9.867188 10.71875 -8.984375 C 11.164062 -8.109375 11.390625 -7.019531 11.390625 -5.71875 C 11.390625 -3.925781 10.984375 -2.5625 10.171875 -1.625 C 9.367188 -0.6875 8.269531 -0.132812 6.875 0.03125 L 6.828125 0.203125 C 7.015625 0.628906 7.316406 0.953125 7.734375 1.171875 C 8.148438 1.390625 8.640625 1.5 9.203125 1.5 C 9.492188 1.5 9.765625 1.460938 10.015625 1.390625 L 10.171875 1.421875 L 10.359375 2.46875 C 10.046875 2.601562 9.65625 2.671875 9.1875 2.671875 Z M 6.265625 -1.078125 C 7.453125 -1.078125 8.363281 -1.445312 9 -2.1875 C 9.632812 -2.9375 9.953125 -4.113281 9.953125 -5.71875 C 9.953125 -7.320312 9.632812 -8.492188 9 -9.234375 C 8.363281 -9.972656 7.453125 -10.34375 6.265625 -10.34375 C 3.804688 -10.34375 2.578125 -8.800781 2.578125 -5.71875 C 2.578125 -2.625 3.804688 -1.078125 6.265625 -1.078125 Z M 6.265625 -1.078125 "/></g></g></g><g fill="#ffffff" fill-opacity="1"><g transform="translate(283.522792, 333.849969)"><g><path d="M 4.265625 0.171875 C 3.285156 0.171875 2.554688 -0.0859375 2.078125 -0.609375 C 1.609375 -1.128906 1.375 -1.882812 1.375 -2.875 L 1.375 -8.625 L 2.640625 -8.625 L 2.640625 -2.90625 C 2.640625 -1.601562 3.253906 -0.953125 4.484375 -0.953125 C 5.265625 -0.953125 5.878906 -1.207031 6.328125 -1.71875 C 6.785156 -2.226562 7.015625 -3.054688 7.015625 -4.203125 L 7.015625 -8.625 L 8.296875 -8.625 L 8.296875 0 L 7.09375 0 L 7.09375 -1.359375 L 6.921875 -1.390625 C 6.628906 -0.867188 6.273438 -0.476562 5.859375 -0.21875 C 5.441406 0.0390625 4.910156 0.171875 4.265625 0.171875 Z M 4.265625 0.171875 "/></g></g></g><g fill="#ffffff" fill-opacity="1"><g transform="translate(293.30947, 333.849969)"><g><path d="M 2.140625 -10.28125 C 1.867188 -10.28125 1.648438 -10.363281 1.484375 -10.53125 C 1.316406 -10.707031 1.234375 -10.925781 1.234375 -11.1875 C 1.234375 -11.445312 1.316406 -11.660156 1.484375 -11.828125 C 1.648438 -11.992188 1.867188 -12.078125 2.140625 -12.078125 C 2.410156 -12.078125 2.628906 -11.992188 2.796875 -11.828125 C 2.972656 -11.660156 3.0625 -11.445312 3.0625 -11.1875 C 3.0625 -10.925781 2.972656 -10.707031 2.796875 -10.53125 C 2.628906 -10.363281 2.410156 -10.28125 2.140625 -10.28125 Z M 1.5 0 L 1.5 -8.625 L 2.78125 -8.625 L 2.78125 0 Z M 1.5 0 "/></g></g></g><g fill="#ffffff" fill-opacity="1"><g transform="translate(297.58187, 333.849969)"><g><path d="M 6.890625 0 L 0.59375 0 L 0.59375 -1.109375 L 5.328125 -7.421875 L 5.28125 -7.578125 L 0.78125 -7.578125 L 0.78125 -8.625 L 6.828125 -8.625 L 6.828125 -7.515625 L 2.09375 -1.21875 L 2.140625 -1.046875 L 6.890625 -1.046875 Z M 6.890625 0 "/></g></g></g></svg>